<svg width="34.000000" height="33.000000" viewBox="0 0 34 33" fill="none" xmlns="http://www.w3.org/2000/svg" xmlns:xlink="http://www.w3.org/1999/xlink">
	<desc>
			Created with Pixso.
	</desc>
	<defs>
		<clipPath id="clip5862_557">
			<rect id="005-instagram" width="34.000000" height="33.000000" fill="white" fill-opacity="0"/>
		</clipPath>
		<linearGradient id="paint_linear_5862_560_0" x1="17.000000" y1="32.848030" x2="17.000000" y2="2.236187" gradientUnits="userSpaceOnUse">
			<stop stop-color="#E09B3D"/>
			<stop offset="0.240000" stop-color="#C74C4D"/>
			<stop offset="0.650000" stop-color="#C21975"/>
			<stop offset="1.000000" stop-color="#7024C4"/>
		</linearGradient>
	</defs>
	<rect id="005-instagram" width="34.000000" height="33.000000" fill="#FFFFFF" fill-opacity="0"/>
	<g clip-path="url(#clip5862_557)">
		<path id="background" d="M34 16.5C34 25.6123 26.3906 33 17 33C7.60938 33 0 25.6123 0 16.5C0 7.3877 7.60938 0 17 0C26.3906 0 34 7.3877 34 16.5Z" fill="url(#paint_linear_5862_560_0)" fill-opacity="1.000000" fill-rule="evenodd"/>
		<path id="Vector" d="M20.4375 8.25L13.5625 8.25C12.2188 8.25195 10.9375 8.77051 9.98438 9.69141C9.03906 10.6133 8.5 11.8623 8.5 13.165L8.5 19.835C8.5 21.1377 9.03906 22.3867 9.98438 23.3086C10.9375 24.2295 12.2188 24.748 13.5625 24.75L20.4375 24.75C21.7812 24.749 23.0625 24.2305 24.0156 23.3086C24.9688 22.3877 25.5 21.1377 25.5 19.835L25.5 13.165C25.5 11.8623 24.9609 10.6133 24.0156 9.69141C23.0625 8.77051 21.7812 8.25195 20.4375 8.25ZM23.7891 19.835C23.7891 20.6982 23.4375 21.5264 22.8047 22.1377C22.1797 22.748 21.3281 23.0918 20.4375 23.0918L13.5625 23.0918C12.6719 23.0918 11.8203 22.748 11.1953 22.1377C10.5625 21.5264 10.2109 20.6982 10.2109 19.835L10.2109 13.165C10.2109 12.3018 10.5625 11.4736 11.1953 10.8623C11.8203 10.252 12.6719 9.9082 13.5625 9.9082L20.4375 9.9082C21.3281 9.9082 22.1797 10.252 22.8047 10.8623C23.4375 11.4736 23.7891 12.3018 23.7891 13.165L23.7891 19.835Z" fill="#FFFFFF" fill-opacity="1.000000" fill-rule="nonzero"/>
		<path id="Vector" d="M17 12.2344C16.1328 12.2344 15.2812 12.4844 14.5547 12.9531C13.8359 13.4219 13.2734 14.0879 12.9375 14.8682C12.6016 15.6484 12.5156 16.5068 12.6875 17.335C12.8594 18.1631 13.2734 18.9238 13.8906 19.5205C14.5078 20.1182 15.2891 20.5244 16.1406 20.6895C16.9922 20.8535 17.8828 20.7686 18.6797 20.4453C19.4844 20.1221 20.1719 19.5752 20.6562 18.873C21.1406 18.1699 21.3984 17.3447 21.3984 16.501C21.3984 15.3691 20.9297 14.2852 20.1094 13.4854C19.2812 12.6855 18.1641 12.2354 17 12.2344ZM17 19.1055C16.4688 19.1055 15.9531 18.9531 15.5078 18.667C15.0703 18.3809 14.7266 17.9736 14.5234 17.4971C14.3203 17.0215 14.2656 16.498 14.3672 15.9922C14.4688 15.4873 14.7266 15.0225 15.1016 14.6582C15.4766 14.2939 15.9609 14.0459 16.4766 13.9453C17 13.8447 17.5391 13.8965 18.0312 14.0938C18.5156 14.291 18.9375 14.625 19.2344 15.0527C19.5312 15.4814 19.6875 15.9854 19.6875 16.501C19.6875 17.1914 19.4062 17.8545 18.8984 18.3428C18.3984 18.8311 17.7109 19.1055 17 19.1055Z" fill="#FFFFFF" fill-opacity="1.000000" fill-rule="nonzero"/>
		<path id="Vector" d="M22.5078 12.2334C22.5078 12.8164 22.0234 13.2891 21.4219 13.2891C20.8203 13.2891 20.3359 12.8164 20.3359 12.2334C20.3359 11.6514 20.8203 11.1787 21.4219 11.1787C22.0234 11.1787 22.5078 11.6514 22.5078 12.2334Z" fill="#FFFFFF" fill-opacity="1.000000" fill-rule="evenodd"/>
	</g>
</svg>
