<svg width="33.000000" height="33.000000" viewBox="0 0 33 33" fill="none" xmlns="http://www.w3.org/2000/svg" xmlns:xlink="http://www.w3.org/1999/xlink">
	<desc>
			Created with Pixso.
	</desc>
	<defs/>
	<path id="background" d="M33 16.5C33 25.6123 25.6094 33 16.5 33C7.39062 33 0 25.6123 0 16.5C0 7.3877 7.39062 0 16.5 0C25.6094 0 33 7.3877 33 16.5Z" fill="#4065D6" fill-opacity="1.000000" fill-rule="evenodd"/>
	<path id="icon" d="M24.1094 21.2158C23.7266 21.2695 21.8516 21.2158 21.75 21.2158C21.2656 21.2207 20.7969 21.0342 20.4453 20.6963C20.0547 20.3145 19.6953 19.8936 19.3125 19.4961C19.1953 19.375 19.0703 19.2627 18.9453 19.1592C18.6328 18.9229 18.3281 18.9766 18.1797 19.3418C18.0625 19.7373 17.9844 20.1416 17.9453 20.5508C17.9375 20.7236 17.8672 20.8857 17.7344 21.0029C17.6094 21.1201 17.4453 21.1826 17.2734 21.1768C17.0156 21.1895 16.7578 21.1963 16.5 21.1895C15.5781 21.1846 14.6719 20.9609 13.8516 20.5381C12.9609 20.043 12.1875 19.3662 11.5781 18.5537C10.6016 17.2666 9.76562 15.8848 9.0625 14.4287C9.03125 14.3545 8.29688 12.7979 8.28125 12.7266C8.23438 12.625 8.22656 12.5088 8.26562 12.4043C8.30469 12.2988 8.38281 12.2119 8.48438 12.1621C8.60938 12.1123 11.0234 12.1621 11.0625 12.1621C11.2422 12.1602 11.4219 12.2158 11.5625 12.3213C11.7109 12.4258 11.8203 12.5752 11.875 12.7461C12.3203 13.8838 12.9297 14.9492 13.6797 15.9111C13.7891 16.041 13.9062 16.1543 14.0469 16.248C14.0859 16.2822 14.125 16.3066 14.1797 16.3184C14.2266 16.3301 14.2734 16.3281 14.3203 16.3145C14.3672 16.2998 14.4141 16.2725 14.4453 16.2363C14.4766 16.2002 14.5 16.1553 14.5156 16.1064C14.6094 15.793 14.6641 15.4688 14.6797 15.1406C14.6953 14.4893 14.6797 14.0557 14.6406 13.4043C14.6562 13.1816 14.5781 12.9639 14.4375 12.7969C14.2891 12.6299 14.0781 12.5273 13.8594 12.5117C13.6719 12.4795 13.6406 12.3232 13.7734 12.166C14.0312 11.8428 14.3828 11.791 14.7656 11.7715C15.3438 11.7383 15.9219 11.7715 16.5 11.7715L16.625 11.7715C16.8828 11.7705 17.1328 11.7959 17.3828 11.8477C17.5312 11.877 17.6641 11.9531 17.7578 12.0645C17.8594 12.1758 17.9219 12.3154 17.9297 12.4639C17.9609 12.6279 17.9766 12.7949 17.9688 12.9609C17.9531 13.6709 17.9219 14.3809 17.9141 15.0928C17.9062 15.374 17.9297 15.6553 17.9922 15.9307C18.0703 16.3086 18.3281 16.4043 18.5938 16.1289C18.9297 15.7744 19.2266 15.3955 19.5 14.9951C19.9922 14.2666 20.3984 13.4834 20.7031 12.6611C20.875 12.2402 21 12.1465 21.4531 12.1465L24.0156 12.1465C24.1641 12.1445 24.3203 12.165 24.4688 12.208C24.5156 12.2217 24.5625 12.2461 24.6094 12.2793C24.6484 12.3125 24.6797 12.3535 24.7109 12.4014C24.7344 12.4482 24.75 12.5 24.75 12.5537C24.7578 12.6074 24.75 12.6611 24.7344 12.7109C24.5859 13.2559 24.3281 13.7656 23.9766 14.209C23.4609 14.9453 22.9141 15.6641 22.375 16.3809C22.3125 16.4746 22.25 16.5723 22.1953 16.6738C21.9922 17.0342 22.0078 17.2383 22.2969 17.542C22.7578 18.0195 23.2578 18.4688 23.7031 18.96C24.0312 19.3174 24.3359 19.7031 24.5938 20.1123C24.9219 20.6426 24.7266 21.1289 24.1094 21.2158Z" fill="#FFFFFF" fill-opacity="1.000000" fill-rule="nonzero"/>
</svg>
