<svg width="24.000000" height="24.000000" viewBox="0 0 24 24" fill="none" xmlns="http://www.w3.org/2000/svg" xmlns:xlink="http://www.w3.org/1999/xlink">
	<desc>
			Created with Pixso.
	</desc>
	<defs>
		<clipPath id="clip5856_2886">
			<rect id="box" width="24.000000" height="24.000000" fill="white" fill-opacity="0"/>
		</clipPath>
	</defs>
	<rect id="box" width="24.000000" height="24.000000" fill="#FFFFFF" fill-opacity="0"/>
	<g clip-path="url(#clip5856_2886)">
		<path id="Vector" d="M23.3516 5.10742C23.3516 4.80322 23.1719 4.52881 22.8906 4.41309L12.2812 0.0561523C12.1016 -0.0185547 11.8906 -0.0185547 11.7109 0.0561523L1.10938 4.41309C0.828125 4.52881 0.640625 4.80322 0.640625 5.10742L0.640625 18.8926C0.640625 19.1968 0.828125 19.4712 1.10938 19.5869L11.7109 23.9438C11.8906 24.0181 12.0938 24.0195 12.2812 23.9438C12.2891 23.9404 11.8906 24.1055 22.8906 19.5869C23.1719 19.4712 23.3516 19.1968 23.3516 18.8926L23.3516 5.10742ZM12 8.71582L8.08594 7.11035L16.5312 3.42676L20.7031 5.13916L12 8.71582ZM2.14062 6.29102L5.51562 7.67578L5.51562 11.5835C5.51562 11.998 5.85156 12.3345 6.26562 12.3345C6.67969 12.3345 7.01562 11.998 7.01562 11.5835L7.01562 8.29297L11.2422 10.0308L11.2422 22.1289L2.14062 18.3892L2.14062 6.29102ZM12 1.5625L14.6016 2.63184L6.15625 6.31592L3.28906 5.13916L12 1.5625ZM12.75 10.0308L21.8516 6.29102L21.8516 18.3892L12.75 22.1289L12.75 10.0308Z" fill="#89C249" fill-opacity="1.000000" fill-rule="nonzero"/>
	</g>
</svg>
