<svg width="22.000000" height="22.000000" viewBox="0 0 22 22" fill="none" xmlns="http://www.w3.org/2000/svg" xmlns:xlink="http://www.w3.org/1999/xlink">
	<desc>
			Created with Pixso.
	</desc>
	<defs>
		<clipPath id="clip5856_2855">
			<rect id="calendar" width="22.000000" height="22.000000" fill="white" fill-opacity="0"/>
		</clipPath>
	</defs>
	<rect id="calendar" width="22.000000" height="22.000000" fill="#FFFFFF" fill-opacity="0"/>
	<g clip-path="url(#clip5856_2855)">
		<path id="Vector" d="M19.6406 2.35693L17.2891 2.35693L17.2891 0.785645C17.2891 0.351562 16.9375 0 16.5 0C16.0625 0 15.7109 0.351562 15.7109 0.785645L15.7109 2.35693L6.28906 2.35693L6.28906 0.785645C6.28906 0.351562 5.9375 0 5.5 0C5.0625 0 4.71094 0.351562 4.71094 0.785645L4.71094 2.35693L2.35938 2.35693C1.05469 2.35693 0 3.4126 0 4.71436L0 19.6431C0 20.9448 1.05469 22 2.35938 22L19.6406 22C20.9453 22 22 20.9448 22 19.6431L22 4.71436C22 3.4126 20.9453 2.35693 19.6406 2.35693ZM20.4297 19.6431C20.4297 20.0767 20.0781 20.4287 19.6406 20.4287L2.35938 20.4287C1.92188 20.4287 1.57031 20.0767 1.57031 19.6431L1.57031 9.42871L20.4297 9.42871L20.4297 19.6431ZM20.4297 7.85693L1.57031 7.85693L1.57031 4.71436C1.57031 4.28027 1.92188 3.92871 2.35938 3.92871L4.71094 3.92871L4.71094 5.5C4.71094 5.93408 5.0625 6.28564 5.5 6.28564C5.9375 6.28564 6.28906 5.93408 6.28906 5.5L6.28906 3.92871L15.7109 3.92871L15.7109 5.5C15.7109 5.93408 16.0625 6.28564 16.5 6.28564C16.9375 6.28564 17.2891 5.93408 17.2891 5.5L17.2891 3.92871L19.6406 3.92871C20.0781 3.92871 20.4297 4.28027 20.4297 4.71436L20.4297 7.85693L20.4297 7.85693Z" fill="#89C249" fill-opacity="1.000000" fill-rule="nonzero"/>
		<path id="Vector" d="M6.28906 11L4.71875 11C4.28125 11 3.92969 11.3516 3.92969 11.7856C3.92969 12.2197 4.28125 12.5713 4.71875 12.5713L6.28906 12.5713C6.71875 12.5713 7.07031 12.2197 7.07031 11.7856C7.07031 11.3516 6.71875 11 6.28906 11Z" fill="#89C249" fill-opacity="1.000000" fill-rule="nonzero"/>
		<path id="Vector" d="M11.7891 11L10.2188 11C9.78125 11 9.42969 11.3516 9.42969 11.7856C9.42969 12.2197 9.78125 12.5713 10.2188 12.5713L11.7891 12.5713C12.2188 12.5713 12.5703 12.2197 12.5703 11.7856C12.5703 11.3516 12.2188 11 11.7891 11Z" fill="#89C249" fill-opacity="1.000000" fill-rule="nonzero"/>
		<path id="Vector" d="M17.2891 11L15.7188 11C15.2812 11 14.9297 11.3516 14.9297 11.7856C14.9297 12.2197 15.2812 12.5713 15.7188 12.5713L17.2891 12.5713C17.7188 12.5713 18.0703 12.2197 18.0703 11.7856C18.0703 11.3516 17.7188 11 17.2891 11Z" fill="#89C249" fill-opacity="1.000000" fill-rule="nonzero"/>
		<path id="Vector" d="M6.28906 14.1426L4.71875 14.1426C4.28125 14.1426 3.92969 14.4941 3.92969 14.9282C3.92969 15.3623 4.28125 15.7139 4.71875 15.7139L6.28906 15.7139C6.71875 15.7139 7.07031 15.3623 7.07031 14.9282C7.07031 14.4941 6.71875 14.1426 6.28906 14.1426Z" fill="#89C249" fill-opacity="1.000000" fill-rule="nonzero"/>
		<path id="Vector" d="M11.7891 14.1426L10.2188 14.1426C9.78125 14.1426 9.42969 14.4941 9.42969 14.9282C9.42969 15.3623 9.78125 15.7139 10.2188 15.7139L11.7891 15.7139C12.2188 15.7139 12.5703 15.3623 12.5703 14.9282C12.5703 14.4941 12.2188 14.1426 11.7891 14.1426Z" fill="#89C249" fill-opacity="1.000000" fill-rule="nonzero"/>
		<path id="Vector" d="M17.2891 14.1426L15.7188 14.1426C15.2812 14.1426 14.9297 14.4941 14.9297 14.9282C14.9297 15.3623 15.2812 15.7139 15.7188 15.7139L17.2891 15.7139C17.7188 15.7139 18.0703 15.3623 18.0703 14.9282C18.0703 14.4941 17.7188 14.1426 17.2891 14.1426Z" fill="#89C249" fill-opacity="1.000000" fill-rule="nonzero"/>
		<path id="Vector" d="M6.28906 17.2856L4.71875 17.2856C4.28125 17.2856 3.92969 17.6372 3.92969 18.0713C3.92969 18.5054 4.28125 18.8569 4.71875 18.8569L6.28906 18.8569C6.71875 18.8569 7.07031 18.5054 7.07031 18.0713C7.07031 17.6372 6.71875 17.2856 6.28906 17.2856Z" fill="#89C249" fill-opacity="1.000000" fill-rule="nonzero"/>
		<path id="Vector" d="M11.7891 17.2856L10.2188 17.2856C9.78125 17.2856 9.42969 17.6372 9.42969 18.0713C9.42969 18.5054 9.78125 18.8569 10.2188 18.8569L11.7891 18.8569C12.2188 18.8569 12.5703 18.5054 12.5703 18.0713C12.5703 17.6372 12.2188 17.2856 11.7891 17.2856Z" fill="#89C249" fill-opacity="1.000000" fill-rule="nonzero"/>
		<path id="Vector" d="M17.2891 17.2856L15.7188 17.2856C15.2812 17.2856 14.9297 17.6372 14.9297 18.0713C14.9297 18.5054 15.2812 18.8569 15.7188 18.8569L17.2891 18.8569C17.7188 18.8569 18.0703 18.5054 18.0703 18.0713C18.0703 17.6372 17.7188 17.2856 17.2891 17.2856Z" fill="#89C249" fill-opacity="1.000000" fill-rule="nonzero"/>
	</g>
</svg>
