<svg width="112.000000" height="112.000000" viewBox="0 0 112 112" fill="none" xmlns="http://www.w3.org/2000/svg" xmlns:xlink="http://www.w3.org/1999/xlink">
	<desc>
			Created with Pixso.
	</desc>
	<defs>
		<clipPath id="clip5868_2129">
			<rect id="check-mark 2" width="112.000000" height="112.000000" fill="white" fill-opacity="0"/>
		</clipPath>
	</defs>
	<rect id="check-mark 2" width="112.000000" height="112.000000" fill="#FFFFFF" fill-opacity="0"/>
	<g clip-path="url(#clip5868_2129)">
		<path id="Vector" d="M80.7578 38.231C82.4609 39.9399 82.4609 42.71 80.7578 44.4182L51.4062 73.769C49.6953 75.4773 46.9297 75.4773 45.2188 73.769L31.2422 59.7964C29.5391 58.0884 29.5391 55.3181 31.2422 53.6099C32.9531 51.9009 35.7266 51.9009 37.4297 53.6099L48.3125 64.4885L74.5703 38.231C76.2734 36.5227 79.0469 36.5227 80.7578 38.231ZM112 56C112 86.9541 86.9531 112 56 112C25.0469 112 0 86.9497 0 56C0 25.0459 25.0469 0 56 0C86.9531 0 112 25.0503 112 56ZM103.25 56C103.25 29.8823 82.1172 8.75 56 8.75C29.8828 8.75 8.75 29.8857 8.75 56C8.75 82.1177 29.8828 103.25 56 103.25C82.1172 103.25 103.25 82.1143 103.25 56Z" fill="#89C249" fill-opacity="1.000000" fill-rule="nonzero"/>
	</g>
</svg>
