<svg width="47.000000" height="47.000000" viewBox="0 0 47 47" fill="none" xmlns="http://www.w3.org/2000/svg" xmlns:xlink="http://www.w3.org/1999/xlink">
	<desc>
			Created with Pixso.
	</desc>
	<defs>
		<clipPath id="clip5856_2369">
			<rect id="like 1" width="47.000000" height="47.000000" fill="white" fill-opacity="0"/>
		</clipPath>
	</defs>
	<rect id="like 1" width="47.000000" height="47.000000" fill="#FFFFFF" fill-opacity="0"/>
	<g clip-path="url(#clip5856_2369)">
		<path id="Vector" d="M47 27.9067C47 26.7295 46.5312 25.6328 45.7266 24.8242C46.6406 23.8232 47.1094 22.4819 46.9766 21.0854C46.75 18.5967 44.5078 16.646 41.875 16.646L29.7734 16.646C30.375 14.8267 31.3359 11.4917 31.3359 8.81299C31.3359 4.56494 27.7266 0.979492 25.4609 0.979492C23.4219 0.979492 21.9688 2.125 21.9062 2.17188C21.6797 2.3584 21.5391 2.64014 21.5391 2.93799L21.5391 9.57861L15.8984 21.7964L15.6641 21.916L15.6641 21.542C15.6641 21.0015 15.2266 20.5625 14.6875 20.5625L4.89844 20.5625C2.19531 20.563 0 22.7583 0 25.4585L0 41.1255C0 43.8257 2.19531 46.021 4.89844 46.021L10.7734 46.021C12.8906 46.021 14.6953 44.6699 15.375 42.7842C17.0078 43.6221 19.2031 44.063 20.5625 44.063L38.5391 44.063C40.6719 44.063 42.5391 42.6255 42.9766 40.6436C43.2031 39.6211 43.0703 38.5933 42.625 37.7002C44.0703 36.9736 45.0391 35.4795 45.0391 33.7817C45.0391 33.0884 44.8828 32.4243 44.5859 31.8252C46.0312 31.0967 47 29.6045 47 27.9067ZM42.8672 30.3232C42.4922 30.3682 42.1719 30.6245 42.0547 30.9868C41.9297 31.3491 42.0312 31.7466 42.3125 32.0093C42.8047 32.4775 43.0859 33.1079 43.0859 33.7817C43.0859 35.0171 42.1484 36.0552 40.9141 36.1982C40.5391 36.2432 40.2188 36.4995 40.0938 36.8618C39.9766 37.2241 40.0781 37.6216 40.3516 37.8843C41 38.4912 41.2578 39.3433 41.0625 40.2207C40.8203 41.3135 39.7578 42.1045 38.5391 42.1045L20.5625 42.1045C18.9688 42.1045 16.3047 41.3584 15.3828 40.4321C15.1016 40.1538 14.6797 40.0718 14.3125 40.2207C13.9453 40.3716 13.7109 40.73 13.7109 41.1255C13.7109 42.7451 12.3906 44.063 10.7734 44.063L4.89844 44.063C3.27344 44.063 1.96094 42.7451 1.96094 41.1255L1.96094 25.4585C1.96094 23.8389 3.27344 22.521 4.89844 22.521L13.7109 22.521L13.7109 23.5005C13.7109 23.8394 13.8828 24.1543 14.1719 24.3345C14.4609 24.5068 14.8203 24.5244 15.125 24.3755L17.0859 23.3965C17.2812 23.2983 17.4375 23.1338 17.5312 22.9321L23.4062 10.2031C23.4688 10.0737 23.5 9.93311 23.5 9.79199L23.5 3.46826C23.9062 3.24316 24.6172 2.93799 25.4609 2.93799C26.5312 2.93799 29.375 5.60498 29.375 8.81299C29.375 12.2593 27.5 17.2275 27.4844 17.2769C27.3672 17.5762 27.4062 17.915 27.5859 18.1816C27.7734 18.4458 28.0781 18.6045 28.3984 18.6045L41.875 18.6045C43.5078 18.6045 44.8906 19.7734 45.0312 21.2661C45.1328 22.3823 44.5938 23.4434 43.6328 24.0371C43.3359 24.2212 43.1562 24.5537 43.1719 24.9082C43.1797 25.2627 43.3906 25.5801 43.7031 25.7427C44.5312 26.1636 45.0391 26.9941 45.0391 27.9067C45.0391 29.1421 44.1094 30.1802 42.8672 30.3232Z" fill="#FFFFFF" fill-opacity="1.000000" fill-rule="nonzero"/>
		<path id="Vector" d="M14.6875 22.5205C14.1484 22.5205 13.7109 22.959 13.7109 23.4995L13.7109 41.1245C13.7109 41.665 14.1484 42.104 14.6875 42.104C15.2344 42.104 15.6719 41.665 15.6719 41.1245L15.6719 23.4995C15.6719 22.959 15.2344 22.5205 14.6875 22.5205Z" fill="#FFFFFF" fill-opacity="1.000000" fill-rule="nonzero"/>
	</g>
</svg>
