<svg width="55.000000" height="55.000000" viewBox="0 0 55 55" fill="none" xmlns="http://www.w3.org/2000/svg" xmlns:xlink="http://www.w3.org/1999/xlink">
	<desc>
			Created with Pixso.
	</desc>
	<defs>
		<clipPath id="clip5856_2336">
			<rect id="magnifying-glass 1" width="55.000000" height="55.000000" fill="white" fill-opacity="0"/>
		</clipPath>
	</defs>
	<rect id="magnifying-glass 1" width="55.000000" height="55.000000" fill="#FFFFFF" fill-opacity="0"/>
	<g clip-path="url(#clip5856_2336)">
		<path id="Vector" d="M31.3203 15.0171C29.9062 13.6006 27.6172 13.6006 26.1953 15.0171L20.2969 20.9209L18.8203 19.4468C17.4062 18.0361 15.125 18.0312 13.7031 19.4473C12.2969 20.8574 12.2969 23.1528 13.7031 24.563L19.6094 30.4712C20.0391 30.9019 20.7188 30.8887 21.1328 30.4658L31.3438 20.126C32.7344 18.7134 32.7266 16.4214 31.3203 15.0171ZM29.8125 18.6172L20.3672 28.1836L15.2266 23.042C14.6562 22.4692 14.6562 21.5381 15.2266 20.9658C15.7969 20.3921 16.7266 20.3921 17.3047 20.9658L19.5312 23.1997C19.9531 23.6187 20.6328 23.6191 21.0547 23.1997L27.7188 16.5361C28.2969 15.9595 29.2266 15.959 29.8047 16.5361C30.375 17.1079 30.3828 18.0415 29.8125 18.6172Z" fill="#FFFFFF" fill-opacity="1.000000" fill-rule="nonzero"/>
		<path id="Vector" d="M48.4531 40.2266L37.9375 31.2051C41.9062 24.2686 40.7656 15.4902 35.0781 9.80713C28.1406 2.86426 16.8984 2.86328 9.96094 9.80713C3.01562 16.75 3.01562 27.9883 9.96094 34.9321C15.7734 40.7471 24.5234 41.6475 31.25 37.8408L39.9141 48.5317C42.1484 51.2812 46.2734 51.5122 48.7891 48.9946C51.25 46.5342 51.0938 42.4912 48.4531 40.2266ZM11.4766 33.4121C5.375 27.3091 5.375 17.4302 11.4766 11.3257C17.5781 5.22266 27.4609 5.22168 33.5625 11.3257C40.5156 18.2798 39.4141 30.1016 30.9219 35.5356C30.9219 35.5361 30.9219 35.5361 30.9219 35.5361C24.9531 39.3516 16.8281 38.7617 11.4766 33.4121ZM47.2734 47.4751C45.6641 49.0815 43.0234 48.9468 41.5859 47.1787L33.0703 36.6665C34.4844 35.6152 35.7344 34.3613 36.7422 33.0146L47.0547 41.8574C48.7422 43.3032 48.8594 45.8867 47.2734 47.4751Z" fill="#FFFFFF" fill-opacity="1.000000" fill-rule="nonzero"/>
	</g>
</svg>
