<svg width="46.000000" height="46.000000" viewBox="0 0 46 46" fill="none" xmlns="http://www.w3.org/2000/svg" xmlns:xlink="http://www.w3.org/1999/xlink">
	<desc>
			Created with Pixso.
	</desc>
	<defs>
		<clipPath id="clip5856_2357">
			<rect id="stack 1" width="46.000000" height="46.000000" fill="white" fill-opacity="0"/>
		</clipPath>
	</defs>
	<rect id="stack 1" width="46.000000" height="46.000000" fill="#FFFFFF" fill-opacity="0"/>
	<g clip-path="url(#clip5856_2357)">
		<path id="Vector" d="M31.625 19.1665L14.375 19.1665C13.8438 19.1665 13.4141 18.7373 13.4141 18.2085L13.4141 0.958496C13.4141 0.429199 13.8438 0 14.375 0L31.625 0C32.1484 0 32.5781 0.429199 32.5781 0.958496L32.5781 18.2085C32.5781 18.7373 32.1484 19.1665 31.625 19.1665ZM15.3281 17.25L30.6641 17.25L30.6641 1.9165L15.3281 1.9165L15.3281 17.25Z" fill="#FFFFFF" fill-opacity="1.000000" fill-rule="nonzero"/>
		<path id="Vector" d="M25.875 7.6665L20.125 7.6665C19.5938 7.6665 19.1641 7.2373 19.1641 6.7085L19.1641 0.958496C19.1641 0.429199 19.5938 0 20.125 0L25.875 0C26.3984 0 26.8281 0.429199 26.8281 0.958496L26.8281 6.7085C26.8281 7.2373 26.3984 7.6665 25.875 7.6665ZM21.0781 5.75L24.9141 5.75L24.9141 1.9165L21.0781 1.9165L21.0781 5.75Z" fill="#FFFFFF" fill-opacity="1.000000" fill-rule="nonzero"/>
		<path id="Vector" d="M23 36.4165L4.79688 36.4165C4.26562 36.4165 3.83594 35.9873 3.83594 35.4585L3.83594 18.2085C3.83594 17.6792 4.26562 17.25 4.79688 17.25L23 17.25C23.5312 17.25 23.9609 17.6792 23.9609 18.2085L23.9609 35.4585C23.9609 35.9873 23.5312 36.4165 23 36.4165ZM5.75 34.5L22.0469 34.5L22.0469 19.1665L5.75 19.1665L5.75 34.5Z" fill="#FFFFFF" fill-opacity="1.000000" fill-rule="nonzero"/>
		<path id="Vector" d="M16.2969 24.9165L10.5469 24.9165C10.0156 24.9165 9.58594 24.4873 9.58594 23.9585L9.58594 18.2085C9.58594 17.6792 10.0156 17.25 10.5469 17.25L16.2969 17.25C16.8203 17.25 17.25 17.6792 17.25 18.2085L17.25 23.9585C17.25 24.4873 16.8203 24.9165 16.2969 24.9165ZM11.5 23L15.3359 23L15.3359 19.1665L11.5 19.1665L11.5 23Z" fill="#FFFFFF" fill-opacity="1.000000" fill-rule="nonzero"/>
		<path id="Vector" d="M41.2031 36.4165L23 36.4165C22.4688 36.4165 22.0391 35.9873 22.0391 35.4585L22.0391 18.2085C22.0391 17.6792 22.4688 17.25 23 17.25L41.2031 17.25C41.7344 17.25 42.1641 17.6792 42.1641 18.2085L42.1641 35.4585C42.1641 35.9873 41.7344 36.4165 41.2031 36.4165ZM23.9531 34.5L40.25 34.5L40.25 19.1665L23.9531 19.1665L23.9531 34.5Z" fill="#FFFFFF" fill-opacity="1.000000" fill-rule="nonzero"/>
		<path id="Vector" d="M35.4609 24.9165L29.7109 24.9165C29.1797 24.9165 28.75 24.4873 28.75 23.9585L28.75 18.2085C28.75 17.6792 29.1797 17.25 29.7109 17.25L35.4609 17.25C35.9844 17.25 36.4141 17.6792 36.4141 18.2085L36.4141 23.9585C36.4141 24.4873 35.9844 24.9165 35.4609 24.9165ZM30.6641 23L34.5 23L34.5 19.1665L30.6641 19.1665L30.6641 23Z" fill="#FFFFFF" fill-opacity="1.000000" fill-rule="nonzero"/>
		<path id="Vector" d="M45.0391 46L37.375 46C36.8438 46 36.4141 45.5708 36.4141 45.0415L36.4141 42.1665L28.75 42.1665L28.75 45.0415C28.75 45.5708 28.3203 46 27.7891 46L18.2109 46C17.6797 46 17.25 45.5708 17.25 45.0415L17.25 42.1665L9.58594 42.1665L9.58594 45.0415C9.58594 45.5708 9.15625 46 8.625 46L0.960938 46C0.429688 46 0 45.5708 0 45.0415L0 35.4585C0 34.9292 0.429688 34.5 0.960938 34.5L45.0391 34.5C45.5703 34.5 46 34.9292 46 35.4585L46 45.0415C46 45.5708 45.5703 46 45.0391 46ZM38.3359 44.0835L44.0859 44.0835L44.0859 36.4165L1.91406 36.4165L1.91406 44.0835L7.66406 44.0835L7.66406 41.2085C7.66406 40.6792 8.09375 40.25 8.625 40.25L18.2109 40.25C18.7344 40.25 19.1641 40.6792 19.1641 41.2085L19.1641 44.0835L26.8359 44.0835L26.8359 41.2085C26.8359 40.6792 27.2656 40.25 27.7891 40.25L37.375 40.25C37.9062 40.25 38.3359 40.6792 38.3359 41.2085L38.3359 44.0835Z" fill="#FFFFFF" fill-opacity="1.000000" fill-rule="nonzero"/>
	</g>
</svg>
