<svg width="50.000000" height="50.000000" viewBox="0 0 50 50" fill="none" xmlns="http://www.w3.org/2000/svg" xmlns:xlink="http://www.w3.org/1999/xlink">
	<desc>
			Created with Pixso.
	</desc>
	<defs>
		<clipPath id="clip5856_2092">
			<rect id="check-mark 1" width="50.000000" height="50.000000" fill="white" fill-opacity="0"/>
		</clipPath>
	</defs>
	<rect id="check-mark 1" width="50.000000" height="50.000000" fill="#FFFFFF" fill-opacity="0"/>
	<g clip-path="url(#clip5856_2092)">
		<path id="Vector" d="M13.7969 38.2539L24.5312 45.5693C24.8203 45.769 25.2109 45.769 25.5 45.5693L36.2344 38.2544C39.25 36.1997 41.7031 31.563 41.7031 27.9189L41.7031 12.5688C41.7031 12.2397 41.5156 11.9404 41.2188 11.7959L25.3984 4.02734C25.1562 3.91016 24.8828 3.91016 24.6406 4.02734L8.82031 11.7725C8.52344 11.916 8.32812 12.2158 8.32812 12.5459L8.32812 27.9189C8.32812 31.563 10.7891 36.1997 13.7969 38.2539ZM10.0547 13.083L25.0156 5.76025L39.9844 13.1055L39.9844 27.9189C39.9844 30.9546 37.7734 35.1191 35.2656 36.8306L25.0234 43.8154L14.7734 36.8306C12.2578 35.1191 10.0547 30.9546 10.0547 27.9189L10.0547 13.083Z" fill="#FFFFFF" fill-opacity="1.000000" fill-rule="nonzero"/>
		<path id="Vector" d="M11.7969 41.1758L24.5234 49.8501C24.8203 50.0503 25.2031 50.0503 25.5 49.8501L38.2344 41.1763C42.1641 38.4966 45.2578 32.6729 45.2578 27.9185L45.2578 10.3657C45.25 10.0347 45.0625 9.73584 44.7656 9.59229L25.4062 0.0878906C25.1641 -0.0292969 24.8828 -0.0292969 24.6406 0.0878906L5.27344 9.56641C4.97656 9.70898 4.78125 10.0083 4.77344 10.3398L4.77344 27.9185C4.77344 32.6729 7.86719 38.4966 11.7969 41.1758ZM6.5 10.877L25.0156 1.8208L43.5391 10.9019L43.5391 27.9185C43.5391 32.1626 40.7734 37.3608 37.2656 39.7529L25.0234 48.0962L12.7734 39.7524C9.26562 37.3608 6.5 32.1626 6.5 27.9185L6.5 10.877Z" fill="#FFFFFF" fill-opacity="1.000000" fill-rule="nonzero"/>
		<path id="Vector" d="M21.9844 32.9355C22.1484 33.0967 22.3672 33.186 22.5938 33.1836L22.5938 33.1836C22.8203 33.1865 23.0469 33.0981 23.2031 32.939L35.4453 20.7036C35.6094 20.5425 35.6953 20.3242 35.6953 20.0957C35.6953 19.8672 35.6094 19.6484 35.4453 19.4873L33.0078 17.0522C32.6719 16.7158 32.125 16.7158 31.7891 17.0522L22.6094 26.231L18.2656 21.8423C17.9297 21.5044 17.3828 21.5015 17.0469 21.8364L14.6016 24.2607C14.4375 24.4219 14.3438 24.6406 14.3438 24.8691C14.3438 25.0962 14.4297 25.3145 14.5938 25.4756L21.9844 32.9355ZM17.6484 23.6675L22 28.0708C22.1562 28.2368 22.375 28.333 22.6094 28.3379L22.6094 28.3379C22.8359 28.3335 23.0547 28.2383 23.2188 28.0737L32.3984 18.8862L33.6172 20.1016L22.6016 31.1177L16.4219 24.8809L17.6484 23.6675Z" fill="#FFFFFF" fill-opacity="1.000000" fill-rule="nonzero"/>
	</g>
</svg>
