<svg width="50.000000" height="50.000000" viewBox="0 0 50 50" fill="none" xmlns="http://www.w3.org/2000/svg" xmlns:xlink="http://www.w3.org/1999/xlink">
	<desc>
			Created with Pixso.
	</desc>
	<defs>
		<clipPath id="clip5856_2365">
			<rect id="credit-card 1" width="50.000000" height="50.000000" fill="white" fill-opacity="0"/>
		</clipPath>
	</defs>
	<rect id="credit-card 1" width="50.000000" height="50.000000" fill="#FFFFFF" fill-opacity="0"/>
	<g clip-path="url(#clip5856_2365)">
		<path id="Vector" d="M49.1094 9.45605C48.4609 8.68994 47.5547 8.22217 46.5547 8.13867L11.3438 5.19873C10.3438 5.11523 9.375 5.42627 8.60938 6.07373C7.84375 6.71924 7.375 7.62158 7.28906 8.6167L6.58594 15.2627L3.75781 15.2627C1.6875 15.2627 0 16.9473 0 19.0181L0 41.0591C0 43.1299 1.6875 44.8145 3.75781 44.8145L39.0859 44.8145C41.1562 44.8145 42.8438 43.1299 42.8438 41.0591L42.8438 37.4839L44.1016 37.5884C44.2031 37.5972 44.3125 37.6016 44.4141 37.6016C46.3438 37.6016 47.9922 36.1162 48.1562 34.1587L49.9844 12.1938C50.0703 11.1943 49.7578 10.2217 49.1094 9.45605ZM3.75781 17.2158L39.0859 17.2158C40.0859 17.2158 40.8906 18.0244 40.8906 19.0181L40.8906 21.0264L1.95312 21.0264L1.95312 19.0181C1.95312 18.0244 2.75781 17.2158 3.75781 17.2158ZM1.95312 22.9795L40.8906 22.9795L40.8906 27.0312L1.95312 27.0312L1.95312 22.9795ZM39.0859 42.8613L3.75781 42.8613C2.75781 42.8613 1.95312 42.0527 1.95312 41.0591L1.95312 28.9844L40.8906 28.9844L40.8906 41.0591C40.8906 42.0527 40.0859 42.8613 39.0859 42.8613ZM48.0391 12.0312L46.2031 33.9961C46.125 34.9863 45.25 35.7251 44.2578 35.6421L42.8438 35.5239L42.8438 19.0181C42.8438 16.9473 41.1562 15.2627 39.0859 15.2627L8.54688 15.2627L9.23438 8.81348C9.23438 8.80615 9.23438 8.79883 9.23438 8.79102C9.32031 7.80078 10.1953 7.06201 11.1875 7.14502L46.3906 10.0854C46.875 10.1255 47.3125 10.3496 47.6172 10.7173C47.9297 11.085 48.0781 11.5513 48.0391 12.0312Z" fill="#FFFFFF" fill-opacity="1.000000" fill-rule="nonzero"/>
		<path id="Vector" d="M36.8047 31.8877L27.4062 31.8877C26.8672 31.8877 26.4297 32.3247 26.4297 32.8643L26.4297 38.9961C26.4297 39.5352 26.8672 39.9727 27.4062 39.9727L36.8047 39.9727C37.3438 39.9727 37.7812 39.5352 37.7812 38.9961L37.7812 32.8643C37.7812 32.3247 37.3438 31.8877 36.8047 31.8877ZM35.8281 38.0195L28.3828 38.0195L28.3828 33.8408L35.8281 33.8408L35.8281 38.0195Z" fill="#FFFFFF" fill-opacity="1.000000" fill-rule="nonzero"/>
	</g>
</svg>
