<svg width="71.000000" height="71.000000" viewBox="0 0 71 71" fill="none" xmlns="http://www.w3.org/2000/svg" xmlns:xlink="http://www.w3.org/1999/xlink">
	<desc>
			Created with Pixso.
	</desc>
	<defs>
		<filter id="filter_5856_2339_dd" x="0.000000" y="0.000000" width="71.000000" height="71.000000" filterUnits="userSpaceOnUse" color-interpolation-filters="sRGB">
			<feFlood flood-opacity="0" result="BackgroundImageFix"/>
			<feColorMatrix in="SourceAlpha" type="matrix" values="0 0 0 0 0 0 0 0 0 0 0 0 0 0 0 0 0 0 127 0" result="hardAlpha"/>
			<feOffset dx="0" dy="4"/>
			<feGaussianBlur stdDeviation="1.33333"/>
			<feComposite in2="hardAlpha" operator="out" k2="-1" k3="1"/>
			<feColorMatrix type="matrix" values="0 0 0 0 0 0 0 0 0 0 0 0 0 0 0 0 0 0 0.25 0"/>
			<feBlend mode="normal" in2="BackgroundImageFix" result="effect_dropShadow_1"/>
			<feBlend mode="normal" in="SourceGraphic" in2="effect_dropShadow_1" result="shape"/>
		</filter>
		<clipPath id="clip5856_2339">
			<rect id="delivery-truck 1" width="63.000000" height="63.000000" transform="translate(4.000000 0.000000)" fill="white" fill-opacity="0"/>
		</clipPath>
	</defs>
	<g filter="url(#filter_5856_2339_dd)">
		<rect id="delivery-truck 1" width="63.000000" height="63.000000" transform="translate(4.000000 0.000000)" fill="#FFFFFF" fill-opacity="0"/>
		<g clip-path="url(#clip5856_2339)">
			<path id="Vector" d="M58.0859 48.9404C57.0234 48.9414 55.9766 48.6255 55.0859 48.0327C54.2031 47.4404 53.5078 46.5977 53.1016 45.6113C52.6875 44.6255 52.5859 43.54 52.7891 42.4932C53 41.4458 53.5156 40.4839 54.2656 39.7285C55.0234 38.9736 55.9844 38.459 57.0312 38.2505C58.0781 38.042 59.1641 38.1484 60.1484 38.5571C61.1328 38.9653 61.9766 39.6572 62.5703 40.5444C63.1641 41.4321 63.4844 42.4761 63.4844 43.5435C63.4844 44.9741 62.9141 46.3457 61.8984 47.3574C60.8906 48.3696 59.5156 48.939 58.0859 48.9404ZM58.0859 40.1152C57.4141 40.1143 56.75 40.3149 56.1797 40.6909C55.6172 41.0674 55.1797 41.6025 54.9219 42.229C54.6562 42.855 54.5859 43.5444 54.7188 44.21C54.8516 44.875 55.1797 45.4863 55.6562 45.9663C56.1406 46.4463 56.75 46.7729 57.4141 46.9058C58.0781 47.0381 58.7656 46.9707 59.3984 46.7109C60.0234 46.4517 60.5547 46.0122 60.9375 45.4487C61.3125 44.8848 61.5156 44.2217 61.5156 43.5435C61.5156 42.6353 61.1484 41.7637 60.5078 41.1211C59.8672 40.4785 59 40.1167 58.0859 40.1152Z" fill="#FFFFFF" fill-opacity="1.000000" fill-rule="nonzero"/>
			<path id="Vector" d="M29.6484 48.9404C28.5859 48.9414 27.5391 48.626 26.6562 48.0337C25.7656 47.4409 25.0703 46.5986 24.6641 45.6123C24.25 44.6265 24.1484 43.541 24.3516 42.4937C24.5625 41.4468 25.0781 40.4844 25.8281 39.729C26.5859 38.9736 27.5469 38.4595 28.5938 38.2505C29.6406 38.042 30.7266 38.1484 31.7109 38.5566C32.6953 38.9653 33.5391 39.6567 34.1328 40.5444C34.7266 41.4321 35.0469 42.4761 35.0469 43.5435C35.0391 44.9736 34.4766 46.3452 33.4609 47.3569C32.4531 48.3687 31.0859 48.938 29.6484 48.9404ZM29.6484 40.1152C28.9766 40.1143 28.3125 40.3145 27.75 40.6904C27.1797 41.0664 26.7422 41.6016 26.4844 42.228C26.2188 42.854 26.1484 43.5439 26.2812 44.209C26.4141 44.8745 26.7422 45.4858 27.2188 45.9658C27.7031 46.4458 28.3125 46.7729 28.9766 46.9053C29.6406 47.0381 30.3281 46.9707 30.9609 46.7114C31.5859 46.4521 32.1172 46.0127 32.5 45.4487C32.875 44.8848 33.0781 44.2217 33.0781 43.5435C33.0781 42.6353 32.7109 41.7646 32.0703 41.1221C31.4297 40.4795 30.5625 40.1172 29.6484 40.1152Z" fill="#FFFFFF" fill-opacity="1.000000" fill-rule="nonzero"/>
			<path id="Vector" d="M65.1875 44.5278L62.5 44.5278C62.2344 44.5278 61.9844 44.4243 61.7969 44.2393C61.6172 44.0547 61.5156 43.8047 61.5156 43.5435C61.5156 43.2822 61.6172 43.0317 61.7969 42.8472C61.9844 42.6626 62.2344 42.5591 62.5 42.5591L64.9062 42.5591L64.9062 37.3394C64.9062 36.6333 64.7266 35.9395 64.3828 35.3232L59.0547 25.7695C59.0078 25.688 58.9453 25.6201 58.8672 25.5728C58.7812 25.5254 58.6875 25.5005 58.6016 25.5005L51.3359 25.5005L51.3359 42.563L53.6797 42.563C53.9375 42.563 54.1953 42.6665 54.375 42.8511C54.5625 43.0361 54.6641 43.2861 54.6641 43.5474C54.6641 43.8086 54.5625 44.0586 54.375 44.2432C54.1953 44.4282 53.9375 44.5317 53.6797 44.5317L50.3516 44.5317C50.0938 44.5317 49.8438 44.4282 49.6562 44.2432C49.4688 44.0586 49.3672 43.8086 49.3672 43.5474L49.3672 24.5161C49.3672 24.2549 49.4688 24.0049 49.6562 23.8198C49.8438 23.6353 50.0938 23.5317 50.3516 23.5317L58.6016 23.5317C59.0391 23.5317 59.4766 23.6499 59.8594 23.8745C60.2422 24.0996 60.5625 24.4224 60.7734 24.8101L66.1016 34.3652C66.6094 35.2744 66.875 36.2983 66.875 37.3394L66.875 42.8384C66.875 43.2866 66.6953 43.7158 66.3828 44.0322C66.0625 44.3491 65.6328 44.5269 65.1875 44.5278Z" fill="#FFFFFF" fill-opacity="1.000000" fill-rule="nonzero"/>
			<path id="Vector" d="M25.2422 44.5278L15.8047 44.5278C15.5469 44.5278 15.2969 44.4243 15.1094 44.2397C14.9219 44.0552 14.8203 43.8047 14.8203 43.5435L14.8203 35.9731C14.8203 35.7119 14.9219 35.4619 15.1094 35.2769C15.2969 35.0923 15.5469 34.9888 15.8047 34.9888C16.0625 34.9888 16.3125 35.0923 16.5 35.2769C16.6875 35.4619 16.7891 35.7119 16.7891 35.9731L16.7891 42.5591L25.2422 42.5591C25.5078 42.5591 25.7578 42.6631 25.9375 42.8477C26.125 43.0322 26.2266 43.2827 26.2266 43.5435C26.2266 43.8047 26.125 44.0552 25.9375 44.2397C25.7578 44.4243 25.5078 44.5278 25.2422 44.5278Z" fill="#FFFFFF" fill-opacity="1.000000" fill-rule="nonzero"/>
			<path id="Vector" d="M15.8047 32.4805C15.5469 32.4805 15.2969 32.3765 15.1094 32.1919C14.9219 32.0073 14.8203 31.7568 14.8203 31.4961L14.8203 24.8862C14.8203 24.625 14.9219 24.375 15.1094 24.1899C15.2969 24.0054 15.5469 23.9019 15.8047 23.9019C16.0625 23.9019 16.3125 24.0054 16.5 24.1899C16.6875 24.375 16.7891 24.625 16.7891 24.8862L16.7891 31.5C16.7891 31.7603 16.6875 32.0098 16.5 32.1934C16.3125 32.377 16.0625 32.4805 15.8047 32.4805Z" fill="#FFFFFF" fill-opacity="1.000000" fill-rule="nonzero"/>
			<path id="Vector" d="M50.3594 44.5278L34.0625 44.5278C33.7969 44.5278 33.5469 44.4243 33.3594 44.2397C33.1797 44.0552 33.0781 43.8047 33.0781 43.5435C33.0781 43.2827 33.1797 43.0322 33.3594 42.8477C33.5469 42.6631 33.7969 42.5591 34.0625 42.5591L49.375 42.5591L49.375 16.8066L16.7891 16.8066L16.7891 20.8608C16.7891 21.1221 16.6875 21.3726 16.5 21.5571C16.3125 21.7417 16.0625 21.8452 15.8047 21.8452C15.5469 21.8452 15.2969 21.7417 15.1094 21.5571C14.9219 21.3726 14.8203 21.1221 14.8203 20.8608L14.8203 16.6255C14.8203 16.1514 15.0078 15.6968 15.3438 15.3618C15.6797 15.0269 16.1328 14.8384 16.6094 14.8379L49.5547 14.8379C50.0234 14.8384 50.4844 15.0273 50.8125 15.3623C51.1484 15.6973 51.3438 16.1519 51.3438 16.6255L51.3438 43.5435C51.3438 43.8047 51.2344 44.0552 51.0547 44.2397C50.8672 44.4243 50.6172 44.5278 50.3594 44.5278Z" fill="#FFFFFF" fill-opacity="1.000000" fill-rule="nonzero"/>
			<path id="Vector" d="M19.6953 36.9575L7.20312 36.9575C6.94531 36.9575 6.69531 36.854 6.50781 36.6694C6.32031 36.4844 6.21875 36.2344 6.21875 35.9731C6.21875 35.7119 6.32031 35.4619 6.50781 35.2769C6.69531 35.0923 6.94531 34.9888 7.20312 34.9888L19.6953 34.9888C19.9609 34.9888 20.2109 35.0923 20.3906 35.2769C20.5781 35.4619 20.6797 35.7119 20.6797 35.9731C20.6797 36.2344 20.5781 36.4844 20.3906 36.6694C20.2109 36.854 19.9609 36.9575 19.6953 36.9575Z" fill="#FFFFFF" fill-opacity="1.000000" fill-rule="nonzero"/>
			<path id="Vector" d="M29.6562 32.4805L12.2188 32.4805C11.9609 32.4805 11.7109 32.377 11.5234 32.1924C11.3359 32.0073 11.2344 31.7573 11.2344 31.4961C11.2344 31.2349 11.3359 30.9849 11.5234 30.7998C11.7109 30.6152 11.9609 30.5117 12.2188 30.5117L29.6562 30.5117C29.9141 30.5117 30.1641 30.6152 30.3516 30.7998C30.5312 30.9849 30.6406 31.2349 30.6406 31.4961C30.6406 31.7573 30.5312 32.0073 30.3516 32.1924C30.1641 32.377 29.9141 32.4805 29.6562 32.4805Z" fill="#FFFFFF" fill-opacity="1.000000" fill-rule="nonzero"/>
			<path id="Vector" d="M11.6719 27.2832L4.86719 27.2832C4.60938 27.2832 4.35938 27.1797 4.17188 26.9951C3.98438 26.8101 3.88281 26.5601 3.88281 26.2988C3.88281 26.0376 3.98438 25.7876 4.17188 25.6025C4.35938 25.418 4.60938 25.3145 4.86719 25.3145L11.6719 25.3145C11.9375 25.3145 12.1875 25.418 12.375 25.6025C12.5547 25.7876 12.6562 26.0376 12.6562 26.2988C12.6562 26.5601 12.5547 26.8101 12.375 26.9951C12.1875 27.1797 11.9375 27.2832 11.6719 27.2832Z" fill="#FFFFFF" fill-opacity="1.000000" fill-rule="nonzero"/>
			<path id="Vector" d="M22.5859 21.8452L10.5703 21.8452C10.3125 21.8452 10.0625 21.7417 9.875 21.5571C9.6875 21.3721 9.58594 21.1221 9.58594 20.8608C9.58594 20.5996 9.6875 20.3496 9.875 20.1646C10.0625 19.98 10.3125 19.8765 10.5703 19.8765L22.5859 19.8765C22.8516 19.8765 23.1016 19.98 23.2812 20.1646C23.4688 20.3496 23.5703 20.5996 23.5703 20.8608C23.5703 21.1221 23.4688 21.3721 23.2812 21.5571C23.1016 21.7417 22.8516 21.8452 22.5859 21.8452Z" fill="#FFFFFF" fill-opacity="1.000000" fill-rule="nonzero"/>
		</g>
	</g>
</svg>
