<svg width="50.000000" height="50.000000" viewBox="0 0 50 50" fill="none" xmlns="http://www.w3.org/2000/svg" xmlns:xlink="http://www.w3.org/1999/xlink">
	<desc>
			Created with Pixso.
	</desc>
	<defs>
		<clipPath id="clip5856_2350">
			<rect id="speech-bubble 1" width="50.000000" height="50.000000" fill="white" fill-opacity="0"/>
		</clipPath>
	</defs>
	<rect id="speech-bubble 1" width="50.000000" height="50.000000" fill="#FFFFFF" fill-opacity="0"/>
	<g clip-path="url(#clip5856_2350)">
		<path id="Vector" d="M25 12.3047C24.4609 12.3047 24.0234 12.7422 24.0234 13.2812C24.0234 13.8203 24.4609 14.2578 25 14.2578C25.5391 14.2578 25.9766 13.8203 25.9766 13.2812C25.9766 12.7422 25.5391 12.3047 25 12.3047Z" fill="#FFFFFF" fill-opacity="1.000000" fill-rule="nonzero"/>
		<path id="Vector" d="M8.78906 29.8828C9.32812 29.8828 9.76562 29.4453 9.76562 28.9062C9.76562 28.3672 9.32812 27.9297 8.78906 27.9297C8.25 27.9297 7.8125 28.3672 7.8125 28.9062C7.8125 29.4453 8.25 29.8828 8.78906 29.8828Z" fill="#FFFFFF" fill-opacity="1.000000" fill-rule="nonzero"/>
		<path id="Vector" d="M32.8125 2.53906C24.0234 2.53906 16.8047 8.60059 16.25 16.2358C7.875 16.6558 0 22.6934 0 30.8594C0 34.272 1.35156 37.5786 3.8125 40.1987C4.29688 42.2036 3.70312 44.3286 2.24219 45.7939C1.96094 46.0732 1.875 46.4932 2.03125 46.8584C2.17969 47.2227 2.53125 47.4609 2.92969 47.4609C5.71094 47.4609 8.39844 46.3687 10.3906 44.4443C12.3359 45.1064 14.8672 45.5078 17.1875 45.5078C25.9766 45.5078 33.1953 39.4478 33.75 31.814C35.7969 31.7236 37.9219 31.3457 39.6094 30.7725C41.6016 32.6968 44.2891 33.7891 47.0703 33.7891C47.4688 33.7891 47.8203 33.5508 47.9688 33.1865C48.125 32.8213 48.0391 32.4014 47.7578 32.1221C46.2969 30.6567 45.7031 28.5317 46.1875 26.5269C48.6484 23.9067 50 20.6001 50 17.1875C50 8.70264 41.5234 2.53906 32.8125 2.53906ZM17.1875 43.5547C14.8828 43.5547 12.2578 43.1021 10.5 42.4023C10.1172 42.252 9.6875 42.3506 9.41406 42.6504C8.23438 43.9395 6.70312 44.8379 5.03125 45.251C5.95312 43.4873 6.1875 41.4087 5.625 39.4385C5.58594 39.2832 5.5 39.1416 5.39062 39.0259C3.17188 36.7441 1.95312 33.8438 1.95312 30.8594C1.95312 23.9775 8.92969 18.1641 17.1875 18.1641C24.9844 18.1641 31.8359 23.5864 31.8359 30.8594C31.8359 37.8599 25.2656 43.5547 17.1875 43.5547ZM44.6094 25.354C44.5 25.4702 44.4141 25.6118 44.375 25.7666C43.8125 27.7368 44.0469 29.8154 44.9688 31.5791C43.2969 31.1665 41.7656 30.2676 40.5859 28.9785C40.3125 28.6792 39.8828 28.5801 39.5 28.7305C37.9766 29.3369 35.8047 29.7568 33.75 29.8584C33.4609 26.1655 31.625 22.6943 28.4766 20.1172L41.2109 20.1172C41.75 20.1172 42.1875 19.6802 42.1875 19.1406C42.1875 18.6011 41.75 18.1641 41.2109 18.1641L25.4688 18.1641C23.2578 17.0356 20.7656 16.3774 18.2031 16.2397C18.7656 9.68066 25.1016 4.49219 32.8125 4.49219C41.0703 4.49219 48.0469 10.3057 48.0469 17.1875C48.0469 20.1719 46.8281 23.0723 44.6094 25.354Z" fill="#FFFFFF" fill-opacity="1.000000" fill-rule="nonzero"/>
		<path id="Vector" d="M25 27.9297L12.6953 27.9297C12.1562 27.9297 11.7188 28.3667 11.7188 28.9062C11.7188 29.4458 12.1562 29.8828 12.6953 29.8828L25 29.8828C25.5391 29.8828 25.9766 29.4458 25.9766 28.9062C25.9766 28.3667 25.5391 27.9297 25 27.9297Z" fill="#FFFFFF" fill-opacity="1.000000" fill-rule="nonzero"/>
		<path id="Vector" d="M25 33.7891L8.78906 33.7891C8.25 33.7891 7.8125 34.2261 7.8125 34.7656C7.8125 35.3052 8.25 35.7422 8.78906 35.7422L25 35.7422C25.5391 35.7422 25.9766 35.3052 25.9766 34.7656C25.9766 34.2261 25.5391 33.7891 25 33.7891Z" fill="#FFFFFF" fill-opacity="1.000000" fill-rule="nonzero"/>
		<path id="Vector" d="M41.2109 12.3047L28.9062 12.3047C28.3672 12.3047 27.9297 12.7417 27.9297 13.2812C27.9297 13.8208 28.3672 14.2578 28.9062 14.2578L41.2109 14.2578C41.75 14.2578 42.1875 13.8208 42.1875 13.2812C42.1875 12.7417 41.75 12.3047 41.2109 12.3047Z" fill="#FFFFFF" fill-opacity="1.000000" fill-rule="nonzero"/>
	</g>
</svg>
