<svg width="50.000000" height="50.000000" viewBox="0 0 50 50" fill="none" xmlns="http://www.w3.org/2000/svg" xmlns:xlink="http://www.w3.org/1999/xlink">
	<desc>
			Created with Pixso.
	</desc>
	<defs>
		<clipPath id="clip5856_2231">
			<rect id="file 1" width="50.000000" height="50.000000" fill="white" fill-opacity="0"/>
		</clipPath>
	</defs>
	<rect id="file 1" width="50.000000" height="50.000000" fill="#FFFFFF" fill-opacity="0"/>
	<g clip-path="url(#clip5856_2231)">
		<path id="Vector" d="M36.3281 21.6445L36.3281 12.1821C36.3281 11.9116 36.2031 11.6611 36.0234 11.4634L25.4141 0.323242C25.2188 0.114746 24.9375 0 24.6562 0L7.83594 0C4.72656 0 2.25 2.53223 2.25 5.6377L2.25 37.4429C2.25 40.5483 4.72656 43.0391 7.83594 43.0391L21.1094 43.0391C23.625 47.207 28.1875 50 33.3906 50C41.2891 50 47.7344 43.5806 47.7344 35.6714C47.75 28.7622 42.7891 22.9888 36.3281 21.6445ZM25.6953 3.65771L32.8125 11.1504L28.1953 11.1504C26.8203 11.1504 25.6953 10.0146 25.6953 8.63916L25.6953 3.65771ZM7.83594 40.9546C5.89062 40.9546 4.33594 39.3911 4.33594 37.4429L4.33594 5.6377C4.33594 3.67871 5.89062 2.08447 7.83594 2.08447L23.6094 2.08447L23.6094 8.63916C23.6094 11.1714 25.6641 13.2349 28.1953 13.2349L34.2422 13.2349L34.2422 21.3735C33.9297 21.3633 33.6797 21.332 33.4062 21.332C29.7734 21.332 26.4297 22.7285 23.9062 24.917L10.6719 24.917C10.0938 24.917 9.625 25.3857 9.625 25.9585C9.625 26.5322 10.0938 27.001 10.6719 27.001L21.9688 27.001C21.2266 28.043 20.6094 29.085 20.1328 30.2314L10.6719 30.2314C10.0938 30.2314 9.625 30.7002 9.625 31.2734C9.625 31.8467 10.0938 32.3159 10.6719 32.3159L19.4531 32.3159C19.1953 33.3579 19.0625 34.5146 19.0625 35.6714C19.0625 37.5469 19.4219 39.4019 20.0781 40.9653L7.83594 40.9653L7.83594 40.9546ZM33.3984 47.9263C26.6484 47.9263 21.1562 42.4341 21.1562 35.6816C21.1562 28.9287 26.6328 23.4365 33.3984 23.4365C40.1641 23.4365 45.6406 28.9287 45.6406 35.6816C45.6406 42.4341 40.1484 47.9263 33.3984 47.9263Z" fill="#FFFFFF" fill-opacity="1.000000" fill-rule="nonzero"/>
		<path id="Vector" d="M10.6641 21.7803L21.2266 21.7803C21.7969 21.7803 22.2656 21.311 22.2656 20.7378C22.2656 20.1646 21.7969 19.6958 21.2266 19.6958L10.6641 19.6958C10.0938 19.6958 9.625 20.1646 9.625 20.7378C9.625 21.311 10.0938 21.7803 10.6641 21.7803Z" fill="#FFFFFF" fill-opacity="1.000000" fill-rule="nonzero"/>
		<path id="Vector" d="M39.0625 30.9922L31.1875 38.2036L27.3281 34.0146C26.9453 33.5874 26.2734 33.5664 25.8594 33.9517C25.4297 34.3374 25.4141 35.0049 25.7969 35.4214L30.3594 40.3711C30.5703 40.5903 30.8516 40.7051 31.1328 40.7051C31.3828 40.7051 31.6328 40.6113 31.8438 40.4336L40.4844 32.5142C40.9062 32.1284 40.9375 31.4614 40.5469 31.0444C40.1484 30.6279 39.4922 30.5967 39.0625 30.9922Z" fill="#FFFFFF" fill-opacity="1.000000" fill-rule="nonzero"/>
	</g>
</svg>
